<svg width="1440" height="297" viewBox="0 0 1440 297" fill="none" xmlns="http://www.w3.org/2000/svg">
<g clip-path="url(#clip0)">
<rect width="1440" height="297" fill="#0F2336"/>
<mask id="mask0" style="mask-type:alpha" maskUnits="userSpaceOnUse" x="1313" y="44" width="161" height="195">
<path d="M1313.31 44H1473V238.789H1313.31V44Z" fill="white"/>
</mask>
<g mask="url(#mask0)">
<path fill-rule="evenodd" clip-rule="evenodd" d="M1439.41 234.425C1468.45 214.495 1474.47 178.274 1472.72 145.831C1472.43 140.414 1472.96 134.694 1470.15 129.981C1467.35 125.273 1460.94 122.126 1455.86 124.492C1451.65 126.456 1449.88 131.165 1447.57 135.075C1444.51 140.277 1439.87 144.615 1434.38 147.429C1430.77 149.279 1426.28 150.446 1422.65 148.625C1417.67 146.127 1416.98 139.68 1416.91 134.288C1416.8 124.242 1416.68 114.197 1416.57 104.152C1416.51 98.7632 1416.43 93.2608 1414.56 88.1744C1412.7 83.0869 1408.71 78.4011 1403.27 77.0515C1397.83 75.7019 1391.2 78.7651 1390.15 84.0595C1389.71 86.2623 1390.22 88.5337 1390.11 90.7732C1389.99 93.0126 1388.93 95.505 1386.7 96.1645C1384.44 96.8334 1382.14 95.3431 1380.41 93.7914C1374.44 88.4462 1370.33 81.5009 1366.48 74.5898C1362.63 67.6788 1358.89 60.6011 1353.45 54.7501C1348.02 48.9026 1340.57 44.3185 1332.41 44.0124C1324.26 43.7087 1315.66 48.6107 1313.74 56.2202C1311.81 63.8533 1316.63 71.4853 1321.83 77.5537C1329.55 86.5566 1338.63 94.4828 1348.7 101C1350.51 102.179 1352.48 103.449 1353.2 105.434C1354.5 109.008 1350.97 112.634 1347.25 113.875C1343.03 115.282 1338.43 114.938 1334 115.506C1329.57 116.073 1324.8 118.004 1323.19 122.002C1320.96 127.548 1325.93 133.243 1330.78 136.948C1340.5 144.366 1351.55 150.171 1363.29 154.032C1367.5 155.416 1371.93 156.617 1375.35 159.35C1378.78 162.08 1380.9 166.889 1378.93 170.718C1376.96 174.553 1371.75 175.851 1367.35 175.15C1362.96 174.452 1358.99 172.261 1354.79 170.837C1346.92 168.166 1336.83 168.839 1331.94 175.321C1328.73 179.581 1328.54 185.446 1330.3 190.433C1332.05 195.422 1335.5 199.686 1339.16 203.615C1351.94 217.339 1368.18 228.29 1386.43 233.953C1404.67 239.618 1421.5 240.96 1439.41 234.425Z" fill="#F3AF47"/>
<path fill-rule="evenodd" clip-rule="evenodd" d="M1442.2 283.662C1442.75 276.427 1442.34 272.359 1440.84 259.437C1439.37 246.52 1436.13 231.29 1430.78 214.906C1425.46 198.509 1418.07 180.995 1409.68 162.931C1407.56 158.425 1405.48 153.97 1403.42 149.579C1401.35 145.202 1399.3 140.86 1397.02 136.732C1392.5 128.456 1387.5 120.829 1382.51 113.731C1377.52 106.627 1372.52 100.058 1367.8 93.9515C1363.06 87.8524 1358.53 82.246 1354.17 77.3049C1345.48 67.3874 1337.51 60.1951 1331.81 55.4715C1328.97 53.1008 1326.71 51.3305 1325.16 50.1511L1323.38 48.8181C1322.98 48.5226 1322.77 48.3784 1322.75 48.3914C1322.74 48.4068 1322.93 48.577 1323.32 48.8984C1323.74 49.2482 1324.31 49.7138 1325.02 50.3059C1326.53 51.5385 1328.75 53.3537 1331.55 55.7658C1337.15 60.5756 1345.02 67.8199 1353.61 77.7635C1357.92 82.7199 1362.4 88.3393 1367.1 94.4526C1371.79 100.578 1376.76 107.152 1381.72 114.25C1386.67 121.345 1391.64 128.955 1396.12 137.192C1398.38 141.302 1400.41 145.606 1402.47 149.996C1404.53 154.384 1406.62 158.839 1408.73 163.342C1417.11 181.39 1424.51 198.85 1429.87 215.185C1435.25 231.505 1438.55 246.656 1440.11 259.516C1441.7 272.382 1442.22 276.408 1441.8 283.634" fill="#263238"/>
<path fill-rule="evenodd" clip-rule="evenodd" d="M1395.22 134.757C1395.28 134.769 1395.44 133.944 1395.67 132.443C1395.9 130.947 1396.18 128.768 1396.48 126.071C1397.09 120.681 1397.7 113.204 1398.35 104.959C1399 96.7075 1399.71 89.2611 1400.39 83.8958C1400.72 81.2131 1401.02 79.0422 1401.23 77.5461C1401.45 76.0476 1401.53 75.2097 1401.47 75.1955C1401.41 75.1813 1401.21 75.992 1400.89 77.4692C1400.56 78.9465 1400.18 81.1056 1399.76 83.7859C1398.91 89.1441 1398.1 96.6082 1397.45 104.868C1396.83 113.007 1396.27 120.369 1395.84 125.996C1395.64 128.536 1395.46 130.678 1395.32 132.395C1395.2 133.905 1395.16 134.747 1395.22 134.757Z" fill="#263238"/>
<path fill-rule="evenodd" clip-rule="evenodd" d="M1322.75 122.95C1322.75 123.018 1323.78 123.115 1325.64 123.233C1327.49 123.363 1330.18 123.534 1333.49 123.848C1340.12 124.427 1349.24 125.533 1359.25 127.179C1369.26 128.841 1378.25 130.717 1384.72 132.254C1387.95 133.001 1390.56 133.672 1392.36 134.127C1394.16 134.588 1395.17 134.812 1395.19 134.745C1395.21 134.679 1394.24 134.329 1392.47 133.751C1390.7 133.18 1388.12 132.404 1384.9 131.565C1378.46 129.846 1369.46 127.854 1359.42 126.185C1349.38 124.537 1340.21 123.538 1333.55 123.14C1330.22 122.915 1327.52 122.85 1325.65 122.844C1323.79 122.846 1322.76 122.88 1322.75 122.95ZM1429.84 212.187C1429.88 212.201 1430.04 211.905 1430.32 211.332L1431.51 208.798C1432.52 206.591 1433.91 203.364 1435.57 199.355C1438.9 191.337 1443.14 180.122 1447.64 167.688C1452.15 155.248 1456.27 144.009 1459.42 135.937C1460.96 132.01 1462.23 128.784 1463.18 126.384L1464.19 123.779C1464.41 123.18 1464.51 122.859 1464.48 122.844C1464.44 122.833 1464.28 123.126 1464 123.701L1462.81 126.234C1461.79 128.437 1460.4 131.668 1458.74 135.676C1455.41 143.692 1451.18 154.907 1446.67 167.348C1442.17 179.785 1438.05 191.023 1434.9 199.097C1433.35 203.018 1432.08 206.25 1431.14 208.645C1430.73 209.688 1430.4 210.548 1430.13 211.252C1429.91 211.852 1429.81 212.172 1429.84 212.187Z" fill="#263238"/>
<path fill-rule="evenodd" clip-rule="evenodd" d="M1332.2 182.417C1332.19 182.453 1332.53 182.583 1333.17 182.8C1333.94 183.042 1334.87 183.339 1336.01 183.702L1346.47 186.906C1355.29 189.615 1367.44 193.498 1380.86 197.803C1394.29 202.114 1406.49 205.886 1415.37 208.412C1419.81 209.676 1423.42 210.663 1425.92 211.294C1427.08 211.578 1428.04 211.811 1428.81 212.003C1429.47 212.153 1429.83 212.216 1429.84 212.178C1429.85 212.143 1429.51 212.014 1428.87 211.795L1426.03 210.896L1415.58 207.692C1406.75 204.982 1394.6 201.1 1381.17 196.791C1367.76 192.483 1355.56 188.71 1346.67 186.185C1342.23 184.919 1338.63 183.933 1336.12 183.301L1333.23 182.592C1332.57 182.443 1332.21 182.382 1332.2 182.417Z" fill="#263238"/>
</g>
<mask id="mask1" style="mask-type:alpha" maskUnits="userSpaceOnUse" x="1285" y="161" width="179" height="172">
<path d="M1366.37 161.532L1285 227.782L1381.92 332.209L1463.29 265.959L1366.37 161.532Z" fill="white"/>
</mask>
<g mask="url(#mask1)">
<path fill-rule="evenodd" clip-rule="evenodd" d="M1446.15 274.156C1448.72 251.221 1431.88 229.678 1413.51 213.458C1410.45 210.752 1407.59 207.53 1403.75 206.273C1399.91 205.02 1395.26 206.131 1394.21 209.558C1393.33 212.398 1395.07 215.624 1396.13 218.664C1397.53 222.706 1397.75 226.972 1396.75 230.809C1396.09 233.331 1394.65 235.874 1392 236.483C1388.36 237.321 1384.55 234.248 1381.6 231.456C1376.11 226.247 1370.62 221.043 1365.13 215.836C1362.18 213.045 1359.17 210.199 1355.56 208.341C1351.95 206.482 1347.57 205.749 1344.34 207.384C1341.11 209.021 1339.72 213.483 1342.1 216.703C1343.09 218.045 1344.56 219.012 1345.72 220.235C1346.88 221.457 1347.74 223.214 1347.07 224.521C1346.39 225.844 1344.53 226.056 1342.89 225.989C1337.25 225.763 1331.6 223.899 1326.09 221.941C1320.58 219.982 1315.03 217.891 1309.36 217.17C1303.7 216.45 1297.79 217.266 1293.87 220.615C1289.95 223.969 1288.66 230.234 1291.89 235.042C1295.14 239.865 1301.48 241.784 1307.16 242.72C1315.58 244.105 1324.05 244.343 1332.21 243.417C1333.68 243.251 1335.27 243.068 1336.68 243.798C1339.22 245.107 1339.56 248.522 1338.52 250.776C1337.34 253.328 1335.03 255.132 1333.3 257.335C1331.57 259.537 1330.42 262.601 1331.85 265.387C1333.83 269.249 1339.19 270.091 1343.43 269.938C1351.91 269.634 1360.14 267.915 1367.63 264.877C1370.32 263.788 1373 262.509 1376.05 262.462C1379.11 262.417 1382.69 264.018 1383.85 266.869C1385.02 269.724 1383.33 272.65 1380.93 274.175C1378.53 275.705 1375.52 276.264 1372.81 277.33C1367.75 279.321 1363.48 284.017 1364.74 289.513C1365.56 293.129 1368.65 296.275 1372.16 298.129C1375.67 299.984 1379.56 300.727 1383.37 301.209C1396.68 302.883 1410.08 301.62 1421.53 296.727C1432.99 291.835 1441.45 285.287 1446.15 274.156Z" fill="#E8505B"/>
</g>
<mask id="mask2" style="mask-type:alpha" maskUnits="userSpaceOnUse" x="1285" y="161" width="179" height="172">
<path d="M1366.37 161.532L1285 227.782L1381.92 332.209L1463.29 265.959L1366.37 161.532Z" fill="white"/>
</mask>
<g mask="url(#mask2)">
<path fill-rule="evenodd" clip-rule="evenodd" d="M1446.15 274.156C1448.72 251.221 1431.88 229.678 1413.51 213.458C1410.45 210.752 1407.59 207.53 1403.75 206.273C1399.91 205.02 1395.26 206.131 1394.21 209.558C1393.33 212.398 1395.07 215.624 1396.13 218.664C1397.53 222.706 1397.75 226.972 1396.75 230.809C1396.09 233.331 1394.65 235.874 1392 236.483C1388.36 237.321 1384.55 234.248 1381.6 231.456C1376.11 226.247 1370.62 221.043 1365.13 215.836C1362.18 213.045 1359.17 210.199 1355.56 208.341C1351.95 206.482 1347.57 205.749 1344.34 207.384C1341.11 209.021 1339.72 213.483 1342.1 216.703C1343.09 218.045 1344.56 219.012 1345.72 220.235C1346.88 221.457 1347.74 223.214 1347.07 224.521C1346.39 225.844 1344.53 226.056 1342.89 225.989C1337.25 225.763 1331.6 223.899 1326.09 221.941C1320.58 219.982 1315.03 217.891 1309.36 217.17C1303.7 216.45 1297.79 217.266 1293.87 220.615C1289.95 223.969 1288.66 230.234 1291.89 235.042C1295.14 239.865 1301.48 241.784 1307.16 242.72C1315.58 244.105 1324.05 244.343 1332.21 243.417C1333.68 243.251 1335.27 243.068 1336.68 243.798C1339.22 245.107 1339.56 248.522 1338.52 250.776C1337.34 253.328 1335.03 255.132 1333.3 257.335C1331.57 259.537 1330.42 262.601 1331.85 265.387C1333.83 269.249 1339.19 270.091 1343.43 269.938C1351.91 269.634 1360.14 267.915 1367.63 264.877C1370.32 263.788 1373 262.509 1376.05 262.462C1379.11 262.417 1382.69 264.018 1383.85 266.869C1385.02 269.724 1383.33 272.65 1380.93 274.175C1378.53 275.705 1375.52 276.264 1372.81 277.33C1367.75 279.321 1363.48 284.017 1364.74 289.513C1365.56 293.129 1368.65 296.275 1372.16 298.129C1375.67 299.984 1379.56 300.727 1383.37 301.209C1396.68 302.883 1410.08 301.62 1421.53 296.727C1432.99 291.835 1441.45 285.287 1446.15 274.156Z" fill="#F8CD99"/>
<mask id="mask3" style="mask-type:alpha" maskUnits="userSpaceOnUse" x="1289" y="176" width="190" height="187">
<path d="M1354.27 176.124L1289.6 228.832L1413.56 362.53L1478.23 309.822L1354.27 176.124Z" fill="white"/>
</mask>
<g mask="url(#mask3)">
<path fill-rule="evenodd" clip-rule="evenodd" d="M1289.6 228.833C1289.6 228.845 1289.78 228.854 1290.12 228.857C1290.5 228.859 1291.01 228.858 1291.65 228.864C1292.99 228.862 1294.96 228.859 1297.51 228.924C1302.61 229.042 1310.04 229.456 1319.24 230.968C1323.83 231.705 1328.86 232.715 1334.26 233.889C1339.65 235.073 1345.41 236.371 1351.44 237.95C1357.47 239.527 1363.79 241.36 1370.21 243.728C1373.43 244.899 1376.65 246.27 1379.93 247.666C1383.21 249.069 1386.53 250.493 1389.89 251.93C1403.33 257.728 1416.01 263.636 1427.16 269.827C1438.32 275.999 1447.91 282.449 1455.49 288.454C1463.09 294.447 1468.68 299.934 1472.35 303.858C1474.18 305.83 1475.57 307.384 1476.48 308.464L1477.53 309.678C1477.77 309.95 1477.9 310.086 1477.91 310.082C1477.92 310.074 1477.81 309.927 1477.58 309.641L1476.59 308.39C1475.71 307.282 1474.35 305.701 1472.54 303.699C1468.92 299.72 1463.37 294.161 1455.78 288.101C1448.21 282.033 1438.6 275.512 1427.42 269.293C1416.25 263.055 1403.55 257.114 1390.1 251.314C1386.74 249.873 1383.41 248.452 1380.13 247.051C1376.86 245.659 1373.61 244.279 1370.38 243.107C1363.91 240.736 1357.57 238.905 1351.52 237.342C1345.47 235.778 1339.7 234.495 1334.3 233.334C1328.9 232.186 1323.85 231.203 1319.24 230.488C1310.02 229.035 1302.57 228.693 1297.48 228.658C1294.92 228.633 1292.95 228.677 1291.62 228.725L1290.11 228.789C1289.77 228.805 1289.6 228.819 1289.6 228.832" fill="#263238"/>
</g>
<path fill-rule="evenodd" clip-rule="evenodd" d="M1372.39 242.338C1372.45 242.295 1372.11 241.735 1371.45 240.758C1370.8 239.777 1369.78 238.404 1368.49 236.738C1365.92 233.401 1362.13 228.965 1357.93 224.095C1353.72 219.225 1350.04 214.727 1347.55 211.34C1346.29 209.656 1345.3 208.277 1344.63 207.308C1343.96 206.346 1343.55 205.835 1343.48 205.878C1343.42 205.92 1343.7 206.513 1344.27 207.552C1344.83 208.596 1345.73 210.051 1346.9 211.803C1349.23 215.32 1352.83 219.914 1357.04 224.79C1361.21 229.576 1364.98 233.909 1367.86 237.221C1369.14 238.728 1370.23 239.998 1371.1 241.018C1371.87 241.911 1372.33 242.385 1372.39 242.338ZM1334.9 267.715C1334.93 267.738 1335.43 267.354 1336.32 266.637C1337.21 265.926 1338.49 264.889 1340.12 263.648C1343.34 261.149 1347.91 257.818 1353.09 254.321C1358.27 250.833 1363.08 247.839 1366.61 245.754C1368.37 244.701 1369.81 243.881 1370.8 243.309C1371.8 242.742 1372.34 242.41 1372.33 242.377C1372.31 242.345 1371.74 242.614 1370.71 243.127C1369.68 243.643 1368.21 244.414 1366.42 245.428C1362.83 247.437 1357.98 250.391 1352.78 253.89C1347.58 257.397 1343.04 260.786 1339.87 263.368C1338.27 264.647 1337.02 265.728 1336.17 266.488C1335.33 267.254 1334.88 267.688 1334.9 267.715ZM1430.07 266.279C1430.1 266.272 1430.01 266.046 1429.84 265.626L1429.04 263.793C1428.33 262.204 1427.25 259.923 1425.88 257.117C1423.14 251.503 1419.11 243.836 1414.55 235.418C1409.99 226.999 1405.9 219.368 1403.05 213.806L1399.68 207.206C1399.32 206.489 1399.01 205.901 1398.76 205.414C1398.54 205.007 1398.42 204.798 1398.39 204.803C1398.37 204.814 1398.45 205.038 1398.63 205.458C1398.84 205.953 1399.11 206.557 1399.43 207.289C1400.14 208.879 1401.22 211.16 1402.59 213.966C1405.33 219.58 1409.35 227.248 1413.92 235.668C1418.47 244.084 1422.57 251.714 1425.42 257.28C1426.8 259.99 1427.94 262.219 1428.78 263.875C1429.15 264.592 1429.45 265.183 1429.7 265.669C1429.93 266.075 1430.05 266.286 1430.07 266.279" fill="#263238"/>
<path fill-rule="evenodd" clip-rule="evenodd" d="M1365.81 292.964C1365.83 292.986 1366.06 292.902 1366.49 292.723L1368.35 291.902C1370.05 291.129 1372.34 290.087 1375.13 288.817C1380.86 286.213 1388.83 282.712 1397.64 278.855C1406.45 274.996 1414.39 271.416 1420.05 268.691C1422.88 267.327 1425.15 266.202 1426.7 265.393C1427.42 265.013 1428 264.703 1428.48 264.449C1428.88 264.226 1429.09 264.095 1429.08 264.073C1429.06 264.052 1428.83 264.136 1428.4 264.314C1427.9 264.536 1427.29 264.809 1426.54 265.138L1419.76 268.219C1414.03 270.825 1406.06 274.328 1397.25 278.186C1388.43 282.041 1380.5 285.622 1374.84 288.346C1372.01 289.709 1369.74 290.834 1368.18 291.644C1367.47 292.025 1366.88 292.335 1366.41 292.589C1366 292.812 1365.8 292.94 1365.81 292.964Z" fill="#263238"/>
</g>
</g>
<defs>
<clipPath id="clip0">
<rect width="1440" height="297" fill="white"/>
</clipPath>
</defs>
</svg>
